#format: frame checksums
#version: 2
#hash: MD5
#tb 0: 1001/30000
#media_type 0: video
#codec_id 0: rawvideo
#dimensions 0: 64x10
#sar 0: 1/1
#stream#, dts,        pts, duration,     size, hash
0,          0,          0,        1,      960, 97eb5fd0599d482662eb0a1def5c5ef2
0,          1,          1,        1,      960, dfdc1b61b478dcca8d411021486aa2ec
0,          2,          2,        1,      960, 2cf560f068bdcb9e345951739091808e
0,          3,          3,        1,      960, 33cacb04c0797fc7bd774251e04b7fb9
0,          4,          4,        1,      960, 7fca126c0542c0dcdcf769b156bd85f5
0,          5,          5,        1,      960, 8a46c5a48cb5bd34be8e647c127f8d61
0,          6,          6,        1,      960, 1ddf07562c0b7dc68ed61b8e1a09fcf0
0,          7,          7,        1,      960, d75911d5eb7fc75ffc3ee40344fc7ed2
0,          8,          8,        1,      960, 498329c8a01d950286af11e1fcf3ac07
0,          9,          9,        1,      960, 7a6ec019df5f3e419d389699094f87c3
